<?xml version="1.0" standalone="no"?><svg xmlns="http://www.w3.org/2000/svg" viewBox="0 0 1440 320"><path fill="#a517ba" fill-opacity="1" d="M0,192L24,186.7C48,181,96,171,144,144C192,117,240,75,288,53.3C336,32,384,32,432,64C480,96,528,160,576,160C624,160,672,96,720,58.7C768,21,816,11,864,48C912,85,960,171,1008,197.3C1056,224,1104,192,1152,154.7C1200,117,1248,75,1296,90.7C1344,107,1392,181,1416,218.7L1440,256L1440,320L1416,320C1392,320,1344,320,1296,320C1248,320,1200,320,1152,320C1104,320,1056,320,1008,320C960,320,912,320,864,320C816,320,768,320,720,320C672,320,624,320,576,320C528,320,480,320,432,320C384,320,336,320,288,320C240,320,192,320,144,320C96,320,48,320,24,320L0,320Z"></path></svg>